HIERARCHY
ROOT joint_Root
{
	OFFSET 0.0 0.0 0.0
	CHANNELS 6 Xposition Yposition Zposition Zrotation Xrotation Yrotation 
	JOINT Hips
	{
		OFFSET -17.1583 93.1646 452.98
		CHANNELS 6 Xposition Yposition Zposition Zrotation Xrotation Yrotation 
		JOINT Spine
		{
			OFFSET 15.7357 0.0 0.0
			CHANNELS 6 Xposition Yposition Zposition Zrotation Xrotation Yrotation 
			JOINT Chest
			{
				OFFSET 8.98455 -0.406207 0.0
				CHANNELS 6 Xposition Yposition Zposition Zrotation Xrotation Yrotation 
				JOINT Neck
				{
					OFFSET 16.3773 0.0 0.0
					CHANNELS 6 Xposition Yposition Zposition Zrotation Xrotation Yrotation 
					JOINT Head
					{
						OFFSET 6.45672 0.0 0.0
						CHANNELS 6 Xposition Yposition Zposition Zrotation Xrotation Yrotation 
						End Site
						{
							OFFSET 0.0 0.0 0.0
						}
					}
				}
				JOINT Shoulder_L
				{
					OFFSET 12.9942 -0.242716 4.98039
					CHANNELS 6 Xposition Yposition Zposition Zrotation Xrotation Yrotation 
					JOINT UpperArm_L
					{
						OFFSET 5.34809 0.0 0.0
						CHANNELS 6 Xposition Yposition Zposition Zrotation Xrotation Yrotation 
						JOINT LowerArm_L
						{
							OFFSET 24.3286 1.87007e-05 0.0
							CHANNELS 6 Xposition Yposition Zposition Zrotation Xrotation Yrotation 
							JOINT Hand_L
							{
								OFFSET 22.2916 0.0 0.0
								CHANNELS 6 Xposition Yposition Zposition Zrotation Xrotation Yrotation 
								End Site
								{
									OFFSET 0.0 0.0 0.0
								}
							}
						}
					}
				}
				JOINT Shoulder_R
				{
					OFFSET 12.9945 -0.242716 -4.98039
					CHANNELS 6 Xposition Yposition Zposition Zrotation Xrotation Yrotation 
					JOINT UpperArm_R
					{
						OFFSET -5.34813 0.0 0.0
						CHANNELS 6 Xposition Yposition Zposition Zrotation Xrotation Yrotation 
						JOINT LowerArm_R
						{
							OFFSET -24.3289 0.000322201 0.0
							CHANNELS 6 Xposition Yposition Zposition Zrotation Xrotation Yrotation 
							JOINT Hand_R
							{
								OFFSET -22.2915 -0.000108084 0.0
								CHANNELS 6 Xposition Yposition Zposition Zrotation Xrotation Yrotation 
								End Site
								{
									OFFSET 0.0 0.0 0.0
								}
							}
						}
					}
				}
			}
		}
		JOINT UpperLeg_L
		{
			OFFSET -2.19248 -6.46944 0.0
			CHANNELS 6 Xposition Yposition Zposition Zrotation Xrotation Yrotation 
			JOINT LowerLeg_L
			{
				OFFSET 39.0811 0.0 -1.23785e-05
				CHANNELS 6 Xposition Yposition Zposition Zrotation Xrotation Yrotation 
				JOINT Foot_L
				{
					OFFSET 40.9854 0.0 -1.26872e-05
					CHANNELS 6 Xposition Yposition Zposition Zrotation Xrotation Yrotation 
					JOINT Toes_L
					{
						OFFSET 11.7543 0.0 0.0
						CHANNELS 6 Xposition Yposition Zposition Zrotation Xrotation Yrotation 
						End Site
						{
							OFFSET 0.0 0.0 0.0
						}
					}
				}
			}
		}
		JOINT UpperLeg_R
		{
			OFFSET -2.19251 6.46944 0.0
			CHANNELS 6 Xposition Yposition Zposition Zrotation Xrotation Yrotation 
			JOINT LowerLeg_R
			{
				OFFSET -39.0811 -0.00228153 -0.0401928
				CHANNELS 6 Xposition Yposition Zposition Zrotation Xrotation Yrotation 
				JOINT Foot_R
				{
					OFFSET -40.9854 0.0 0.0
					CHANNELS 6 Xposition Yposition Zposition Zrotation Xrotation Yrotation 
					JOINT Toes_R
					{
						OFFSET -11.7543 0.0 0.0
						CHANNELS 6 Xposition Yposition Zposition Zrotation Xrotation Yrotation 
						End Site
						{
							OFFSET 0.0 0.0 0.0
						}
					}
				}
			}
		}
	}
}
MOTION
Frames:	4
Frame Time:	0.0333333
0.000000 0.000000 0.000000 0.000000 0.000000 -0.000000 -0.342329 92.740400 -1.550550 85.534000 -3.761930 1.728580 15.735700 0.000005 -0.000001 82.219900 86.934800 -79.313500 8.984550 -0.406207 -0.000000 -1.658430 -1.068540 5.795990 16.377300 -0.000001 -0.000001 4.829080 4.112630 -0.151733 6.456720 -0.000001 -0.000000 2.436530 6.365460 -6.814670 12.994200 -0.242716 4.980390 -92.550800 7.874670 -71.987800 5.348090 -0.000007 -0.000001 -74.999600 19.385400 3.462670 24.328600 0.000019 0.000005 13.339600 23.509000 -30.729100 22.291600 -0.000001 0.000005 -2.079690 4.993620 7.454880 12.994500 -0.242716 -4.980390 89.120700 2.717450 -72.061400 -5.348130 -0.000001 -0.000004 -72.839200 16.217200 -1.269050 -24.328900 0.000322 -0.000009 2.043690 4.264950 -25.644800 -22.291500 -0.000108 -0.000004 3.531710 5.245910 1.541640 -2.192480 -6.469440 -0.000000 -175.365000 -1.454050 -3.794200 39.081100 -0.000007 -0.000012 0.264844 -0.625617 22.945000 40.985400 -0.000006 -0.000013 2.548070 7.003190 -72.773400 11.754300 -0.000000 0.000003 0.000255 0.163218 -9.956970 -2.192510 6.469440 -0.000001 -174.142000 5.875300 -178.630000 -39.081100 -0.002282 -0.040193 0.044223 -0.167034 13.755900 -40.985400 0.000008 0.000006 0.095179 2.668500 -68.680000 -11.754300 -0.000006 -0.000006 -0.009622 0.268458 -5.667430
0.000000 0.000000 0.000000 0.000000 0.000000 -0.000000 -0.382474 92.736900 -1.558960 85.481900 -3.814500 1.721350 15.735700 0.000005 -0.000001 82.304400 86.903200 -79.361300 8.984550 -0.406207 -0.000000 -1.594060 -1.069400 5.869800 16.377300 -0.000001 -0.000001 4.837460 4.103980 -0.074187 6.456720 -0.000001 -0.000000 2.056460 6.471290 -6.796970 12.994200 -0.242716 4.980390 -92.587300 7.945000 -71.896400 5.348090 -0.000007 -0.000001 -74.796900 17.422600 3.767660 24.328600 0.000019 0.000005 13.560600 23.034500 -31.650700 22.291600 -0.000001 0.000005 -2.224440 4.985150 7.633720 12.994500 -0.242716 -4.980390 89.124700 2.689760 -71.966300 -5.348130 -0.000001 -0.000004 -72.661400 14.354900 -0.812684 -24.328900 0.000322 -0.000009 2.247450 4.229540 -28.029400 -22.291500 -0.000108 -0.000004 3.135690 5.229220 1.976010 -2.192480 -6.469440 -0.000000 -175.280000 -1.471630 -3.836250 39.081100 -0.000007 -0.000012 0.266691 -0.627860 23.014500 40.985400 -0.000006 -0.000013 2.515000 6.999500 -72.785800 11.754300 -0.000000 0.000003 0.000230 0.163654 -9.939270 -2.192510 6.469440 -0.000001 -174.043000 5.723890 -178.633000 -39.081100 -0.002282 -0.040193 0.044008 -0.166380 13.737800 -40.985400 0.000008 0.000006 0.087017 2.566360 -68.651700 -11.754300 -0.000006 -0.000006 -0.009796 0.269777 -5.613480
0.000000 0.000000 0.000000 0.000000 0.000000 -0.000000 -0.426262 92.744900 -1.602240 85.489200 -3.903810 1.614790 15.735700 0.000005 -0.000001 82.245900 86.889600 -79.295700 8.984550 -0.406207 -0.000000 -1.567550 -1.079240 5.884120 16.377300 -0.000001 -0.000001 4.713810 4.126090 0.071925 6.456720 -0.000001 -0.000000 1.715050 6.621010 -6.666580 12.994200 -0.242716 4.980390 -92.616200 7.985080 -71.792500 5.348090 -0.000007 -0.000001 -74.528100 15.050500 4.242290 24.328600 0.000019 0.000005 14.183800 22.600400 -33.331100 22.291600 -0.000001 0.000005 -2.423060 4.973310 7.881870 12.994500 -0.242716 -4.980390 89.123100 2.677280 -71.857100 -5.348130 -0.000001 -0.000004 -72.388100 12.520300 -0.390559 -24.328900 0.000322 -0.000009 2.482140 4.155540 -30.898800 -22.291500 -0.000108 -0.000004 3.000770 5.220030 2.212140 -2.192480 -6.469440 -0.000000 -175.265000 -1.564130 -3.931220 39.081100 -0.000007 -0.000012 0.265656 -0.626643 22.974300 40.985400 -0.000006 -0.000013 2.487090 6.996370 -72.768900 11.754300 -0.000000 0.000003 0.000286 0.162661 -9.979600 -2.192510 6.469440 -0.000001 -174.001000 5.622070 -178.737000 -39.081100 -0.002282 -0.040193 0.043882 -0.166579 13.681100 -40.985400 0.000008 0.000006 0.162301 2.539630 -68.601000 -11.754300 -0.000006 -0.000006 -0.009529 0.267748 -5.696440
0.000000 0.000000 0.000000 0.000000 0.000000 -0.000000 -0.489998 92.736800 -1.630150 85.460100 -3.959110 1.612210 15.735700 0.000005 -0.000001 82.125000 86.843100 -79.152600 8.984550 -0.406207 -0.000000 -1.476210 -1.104430 5.929120 16.377300 -0.000001 -0.000001 4.641740 4.118150 0.330781 6.456720 -0.000001 -0.000000 1.290340 6.744590 -6.571770 12.994200 -0.242716 4.980390 -92.655700 8.040150 -71.653000 5.348090 -0.000007 -0.000001 -74.137300 12.528300 4.890800 24.328600 0.000019 0.000005 14.748100 21.587600 -35.583700 22.291600 -0.000001 0.000005 -2.257010 4.980590 7.729410 12.994500 -0.242716 -4.980390 89.125600 2.647820 -71.717000 -5.348130 -0.000001 -0.000004 -72.080700 10.337400 0.104818 -24.328900 0.000322 -0.000009 2.920840 4.275860 -34.392900 -22.291500 -0.000108 -0.000004 2.806290 5.198310 2.761620 -2.192480 -6.469440 -0.000000 -175.180000 -1.593880 -3.997820 39.081100 -0.000007 -0.000012 0.267684 -0.628512 23.069700 40.985400 -0.000006 -0.000013 2.433720 7.002360 -72.769200 11.754300 -0.000000 0.000003 0.000337 0.161740 -10.017000 -2.192510 6.469440 -0.000001 -173.902000 5.509020 -178.784000 -39.081100 -0.002282 -0.040193 0.045234 -0.171389 13.738300 -40.985400 0.000008 0.000006 0.217842 2.454890 -68.617700 -11.754300 -0.000006 -0.000006 -0.009619 0.268437 -5.668290
